<svg id="svg" version="1.1" width="400" height="282.61052631578946" xmlns="http://www.w3.org/2000/svg" xmlns:xlink="http://www.w3.org/1999/xlink" style="display: block;"><g id="svgg"><path id="path0" d="M13.137 5.035 C 9.389 6.057,6.747 8.505,5.276 12.322 L 4.800 13.558 4.754 135.663 C 4.712 247.077,4.731 257.876,4.977 258.996 C 5.866 263.044,9.220 266.416,13.389 267.455 C 14.732 267.790,15.419 267.791,199.074 267.748 L 383.411 267.705 384.862 267.186 C 388.314 265.950,390.797 263.446,392.030 259.956 L 392.505 258.611 392.551 136.758 C 392.594 25.362,392.574 14.797,392.327 13.642 C 391.440 9.504,388.063 6.019,383.923 4.970 C 382.240 4.544,14.702 4.608,13.137 5.035 M112.730 14.526 C 114.708 20.255,148.884 121.653,148.884 121.792 C 148.884 121.874,138.461 121.919,125.195 121.895 L 101.506 121.853 99.287 113.095 L 97.067 104.337 80.561 104.294 L 64.055 104.251 61.817 112.799 C 60.586 117.501,59.510 121.480,59.426 121.642 C 59.263 121.954,15.781 122.121,15.616 121.811 C 15.563 121.712,51.922 13.307,52.417 12.084 C 52.530 11.805,54.105 11.789,82.161 11.789 L 111.785 11.789 112.730 14.526 M228.211 12.182 C 249.952 14.787,261.970 27.508,261.970 47.916 C 261.970 68.475,249.289 81.214,225.853 84.198 C 221.486 84.754,218.249 84.884,208.804 84.884 L 199.749 84.884 199.706 103.368 L 199.663 121.853 176.800 121.895 L 153.937 121.938 153.937 66.858 L 153.937 11.778 189.853 11.833 C 222.696 11.884,225.977 11.914,228.211 12.182 M346.330 14.526 C 348.321 20.293,382.484 121.652,382.484 121.791 C 382.484 121.874,372.192 121.919,358.796 121.895 L 335.107 121.853 332.888 113.095 L 330.669 104.337 314.163 104.294 L 297.658 104.251 295.418 112.799 C 294.187 117.501,293.110 121.480,293.026 121.642 C 292.863 121.954,249.382 122.121,249.215 121.811 C 249.163 121.713,285.518 13.321,286.018 12.084 C 286.130 11.805,287.705 11.789,315.761 11.789 L 345.385 11.789 346.330 14.526 M80.950 36.320 C 80.715 37.097,71.074 76.900,71.074 77.090 C 71.074 77.262,73.005 77.305,80.693 77.305 C 89.772 77.305,90.309 77.289,90.237 77.011 C 90.195 76.848,88.166 67.621,85.727 56.505 C 81.382 36.701,81.141 35.685,80.950 36.320 M314.550 36.320 C 314.315 37.097,304.674 76.900,304.674 77.090 C 304.674 77.262,306.605 77.305,314.293 77.305 C 323.372 77.305,323.909 77.289,323.837 77.011 C 323.795 76.848,321.766 67.621,319.327 56.505 C 314.982 36.701,314.741 35.685,314.550 36.320 M199.747 48.336 L 199.747 59.841 202.905 59.738 C 213.751 59.383,218.005 56.054,218.012 47.916 C 218.019 39.820,214.651 37.228,203.747 36.937 L 199.747 36.830 199.747 48.336 M382.063 127.832 L 382.063 130.105 200.084 130.147 L 18.105 130.188 16.851 128.210 C 16.161 127.122,15.489 126.061,15.358 125.853 L 15.119 125.474 198.591 125.516 L 382.063 125.558 382.063 127.832 M382.161 165.726 C 382.238 189.953,382.307 197.041,382.475 197.895 C 382.791 199.503,382.761 205.268,382.423 207.663 C 382.191 209.307,382.150 211.478,382.149 221.994 L 382.147 234.388 374.195 234.505 L 366.243 234.623 364.646 235.658 C 351.901 243.914,334.754 244.052,322.279 236.001 L 321.105 235.243 308.721 235.438 C 279.905 235.891,275.150 235.954,269.305 235.964 L 263.158 235.974 262.484 236.914 C 260.156 240.161,252.523 246.491,249.119 247.998 C 248.226 248.393,246.964 248.959,246.316 249.255 C 237.488 253.282,228.805 251.921,220.896 245.272 C 220.265 244.742,220.170 244.716,218.852 244.716 C 217.303 244.716,217.270 244.745,217.265 246.147 C 217.239 253.083,212.846 259.190,206.005 261.801 C 197.627 264.998,192.016 264.665,185.669 260.595 C 184.659 259.947,182.960 258.942,181.895 258.363 C 179.042 256.810,178.348 256.305,175.926 254.009 C 166.723 245.288,163.196 243.525,151.973 242.036 C 139.411 240.370,132.908 241.568,120.842 247.773 C 104.451 256.202,95.848 260.376,93.490 261.042 C 84.011 263.721,75.687 263.834,62.136 261.468 C 52.583 259.800,40.618 255.018,34.449 250.404 C 28.361 245.850,19.573 234.524,17.694 228.809 C 16.403 224.884,13.031 208.871,13.418 208.499 C 13.529 208.392,109.803 203.944,111.771 203.955 C 112.291 203.958,112.320 203.913,113.339 201.606 C 115.925 195.748,116.880 191.106,115.983 188.758 L 115.679 187.962 113.460 188.054 C 112.240 188.105,90.514 188.668,65.179 189.306 C 39.844 189.944,18.008 190.511,16.653 190.566 L 14.191 190.668 14.108 186.323 C 14.063 183.934,14.072 181.932,14.129 181.874 C 14.185 181.817,23.857 181.565,35.621 181.314 C 47.385 181.064,58.169 180.808,59.584 180.745 L 62.158 180.632 58.745 178.189 C 52.734 173.889,49.248 170.543,42.420 162.526 C 35.142 153.981,21.221 135.743,21.221 134.755 C 21.221 134.618,69.797 134.580,201.642 134.610 L 382.063 134.653 382.161 165.726 M122.695 159.226 C 121.412 159.524,119.128 160.503,114.076 162.923 C 102.976 168.239,101.748 168.918,90.416 176.004 L 85.439 179.116 104.572 179.160 L 123.705 179.204 124.594 181.939 C 128.417 193.707,133.110 202.007,138.745 206.969 C 146.607 213.892,150.191 214.830,158.400 212.113 C 161.792 210.990,161.853 210.949,161.853 209.756 C 161.853 209.055,161.989 209.404,157.820 199.411 C 155.261 193.277,153.519 189.417,150.825 183.916 C 146.374 174.824,145.597 173.078,144.757 170.274 C 143.942 167.555,140.230 162.448,138.209 161.267 C 135.729 159.817,125.790 158.510,122.695 159.226 M338.442 164.800 C 303.664 169.741,293.122 214.537,322.169 233.951 C 350.922 253.170,388.370 226.568,379.888 192.950 C 375.284 174.706,356.850 162.185,338.442 164.800 M295.862 182.071 C 293.100 182.141,290.803 182.235,290.759 182.280 C 290.714 182.324,290.772 184.946,290.887 188.107 L 291.096 193.853 292.032 193.841 C 295.010 193.805,302.797 193.240,303.035 193.042 C 304.527 191.804,305.178 185.026,304.038 182.601 L 303.746 181.979 302.315 181.961 C 301.528 181.951,298.624 182.001,295.862 182.071 M214.117 184.234 C 187.145 184.941,165.035 185.561,164.984 185.613 C 164.932 185.664,165.976 188.960,167.302 192.937 L 169.713 200.168 170.709 200.121 C 171.257 200.095,193.033 198.977,219.101 197.637 C 245.169 196.297,266.702 195.200,266.951 195.200 L 267.406 195.200 267.511 192.716 C 267.569 191.349,267.666 188.583,267.726 186.568 L 267.837 182.905 265.497 182.926 C 264.211 182.938,241.090 183.526,214.117 184.234 M229.221 205.736 C 229.221 206.307,242.279 219.717,244.884 221.820 C 250.169 226.087,259.222 224.310,259.575 218.936 L 259.621 218.228 244.632 212.023 C 227.222 204.817,229.221 205.632,229.221 205.736 M209.319 206.464 C 204.533 206.707,200.569 206.954,200.509 207.014 C 200.450 207.073,203.610 211.128,207.533 216.024 C 211.456 220.920,215.091 225.495,215.611 226.189 C 217.763 229.065,228.753 240.137,230.480 241.169 C 234.077 243.320,239.585 242.729,243.218 239.802 C 246.303 237.317,246.379 235.890,243.587 232.923 C 242.865 232.155,241.667 230.789,240.926 229.887 C 240.185 228.986,236.851 225.225,233.516 221.531 C 230.181 217.836,225.673 212.826,223.499 210.396 L 219.545 205.979 218.783 206.001 C 218.364 206.013,214.105 206.222,209.319 206.464 M178.695 208.008 C 173.739 208.269,169.365 208.507,168.975 208.536 L 168.266 208.589 175.892 226.947 C 185.796 250.786,184.880 249.134,189.389 251.298 C 195.626 254.290,201.226 253.521,203.935 249.298 C 205.661 246.609,205.454 244.816,202.617 237.895 C 201.186 234.403,196.924 223.246,192.387 211.116 L 191.064 207.579 189.385 207.556 C 188.461 207.543,183.651 207.746,178.695 208.008 M55.540 215.231 C 39.169 215.944,25.737 216.564,25.691 216.611 C 25.449 216.853,27.051 221.870,28.309 224.805 C 32.399 234.349,41.800 242.710,53.305 247.035 C 64.952 251.414,70.369 252.384,80.828 251.966 C 90.687 251.571,93.625 250.937,101.725 247.455 C 106.199 245.532,107.325 245.102,112.421 243.372 C 116.829 241.875,117.953 241.416,120.838 239.932 C 127.687 236.410,133.724 235.123,143.448 235.110 C 149.820 235.102,151.556 234.718,153.083 232.984 C 155.830 229.863,154.949 223.633,151.409 221.150 C 145.148 216.758,133.909 216.641,109.726 220.715 C 96.784 222.896,92.067 221.644,88.178 214.996 L 87.535 213.895 86.420 213.915 C 85.807 213.926,71.911 214.518,55.540 215.231 " stroke="none" fill="#ffffff" fill-rule="evenodd"></path><path id="path1" d="M12.907 0.261 C 6.458 1.544,1.366 6.696,0.256 13.061 C -0.062 14.883,-0.139 257.049,0.177 259.032 C 1.164 265.207,5.763 270.265,11.947 271.976 L 13.558 272.421 198.568 272.421 L 383.579 272.421 385.074 272.040 C 390.907 270.554,395.354 266.107,396.840 260.274 L 397.221 258.779 397.221 136.168 C 397.221 19.691,397.206 13.500,396.925 12.404 C 395.412 6.512,391.219 2.162,385.427 0.475 L 384.084 0.084 199.074 0.058 C 43.287 0.035,13.880 0.068,12.907 0.261 M383.460 4.805 C 387.620 5.629,391.090 8.869,392.286 13.046 L 392.674 14.400 392.674 136.253 C 392.674 254.113,392.664 258.141,392.363 259.200 C 391.186 263.356,388.097 266.438,383.970 267.576 C 382.722 267.920,17.716 268.141,14.864 267.800 C 10.103 267.230,6.387 264.078,4.922 259.368 C 4.560 258.201,4.363 16.679,4.723 14.316 C 5.437 9.629,9.043 5.816,13.726 4.795 C 15.377 4.435,381.643 4.445,383.460 4.805 M22.770 137.053 C 27.925 144.687,40.261 160.230,47.263 167.913 C 51.703 172.784,53.679 174.499,60.174 179.116 C 61.347 179.949,62.308 180.671,62.311 180.720 C 62.314 180.769,52.558 181.017,40.632 181.273 C 28.705 181.528,17.856 181.784,16.521 181.842 L 14.095 181.946 14.206 186.160 C 14.268 188.478,14.353 190.409,14.395 190.451 C 14.437 190.493,37.041 189.948,64.625 189.239 C 92.210 188.530,114.985 187.952,115.238 187.954 C 117.446 187.973,116.486 194.817,113.276 201.937 L 112.403 203.874 110.980 204.006 C 110.198 204.078,88.488 205.081,62.737 206.233 C 9.498 208.616,13.278 208.412,13.390 208.902 C 13.436 209.100,13.818 211.082,14.239 213.305 C 15.812 221.599,17.269 227.743,18.189 229.953 C 20.670 235.911,29.466 246.820,34.860 250.627 C 41.332 255.195,52.432 259.609,61.726 261.311 C 74.936 263.729,83.812 263.627,93.549 260.947 C 95.818 260.322,107.415 254.701,119.116 248.553 C 132.739 241.397,139.292 240.153,153.047 242.115 C 163.466 243.601,166.937 245.379,175.615 253.671 C 178.045 255.994,179.074 256.749,181.895 258.276 C 183.053 258.903,184.796 259.926,185.768 260.549 C 189.857 263.167,191.868 263.816,195.874 263.812 C 201.094 263.807,207.476 261.752,210.982 258.947 C 214.730 255.948,216.519 252.360,217.134 246.611 L 217.336 244.716 218.809 244.716 L 220.281 244.716 221.957 246.021 C 229.350 251.779,237.685 252.980,245.698 249.441 C 246.501 249.087,247.932 248.453,248.879 248.032 C 252.526 246.413,259.466 240.711,262.388 236.933 C 263.167 235.927,263.314 235.812,263.723 235.894 C 264.288 236.007,309.950 235.428,317.914 235.207 L 320.965 235.122 322.377 235.985 C 335.469 243.984,352.086 243.810,364.712 235.543 L 366.393 234.442 374.186 234.442 L 381.979 234.442 381.979 222.237 C 381.979 211.467,382.013 209.818,382.271 208.216 C 382.679 205.680,382.678 199.258,382.270 196.554 C 382.002 194.780,381.979 192.205,381.979 164.680 L 381.979 134.737 201.593 134.737 L 21.207 134.737 22.770 137.053 M129.759 159.176 C 134.092 159.716,137.657 160.689,138.884 161.666 C 141.319 163.605,144.116 167.819,145.085 171.008 C 145.755 173.214,146.840 175.621,150.826 183.747 C 153.360 188.915,155.246 193.059,157.225 197.811 C 158.768 201.516,160.441 205.512,160.944 206.691 C 162.608 210.594,162.505 210.847,158.735 212.091 C 151.493 214.480,148.327 214.163,142.989 210.514 C 134.802 204.916,129.443 196.668,124.614 182.232 L 123.628 179.284 104.466 179.200 L 85.305 179.116 90.947 175.591 C 102.089 168.631,102.612 168.342,114.021 162.865 C 122.814 158.644,123.742 158.426,129.759 159.176 M346.358 164.559 C 376.534 167.190,391.742 202.472,372.884 226.098 C 355.716 247.606,321.958 244.199,309.384 219.690 C 295.868 193.343,316.896 161.990,346.358 164.559 M304.056 182.449 C 305.190 184.838,304.705 191.160,303.253 192.914 L 302.905 193.334 297.016 193.669 C 293.776 193.853,291.110 193.987,291.090 193.967 C 291.056 193.933,290.750 186.633,290.655 183.579 L 290.611 182.147 293.895 182.058 C 295.701 182.008,298.667 181.951,300.486 181.931 L 303.793 181.895 304.056 182.449 M267.874 183.495 C 267.874 183.865,267.808 186.645,267.727 189.672 L 267.580 195.175 266.380 195.276 C 264.479 195.435,169.740 200.282,169.696 200.222 C 169.606 200.097,164.735 185.525,164.772 185.488 C 164.794 185.466,186.977 184.876,214.069 184.178 C 241.160 183.479,264.046 182.883,264.926 182.853 C 268.008 182.749,267.874 182.720,267.874 183.495 M244.538 211.899 L 259.705 218.173 259.705 218.699 C 259.705 223.154,252.465 225.835,247.158 223.344 C 244.680 222.181,238.305 215.983,229.315 205.996 C 228.992 205.636,228.906 205.461,229.086 205.524 C 229.243 205.579,236.197 208.448,244.538 211.899 M221.811 208.386 C 225.225 212.246,237.436 225.836,238.640 227.116 C 239.250 227.764,240.390 229.091,241.174 230.063 C 241.958 231.036,243.154 232.417,243.833 233.133 C 246.284 235.721,246.310 237.169,243.942 239.289 C 240.289 242.560,234.809 243.532,231.038 241.579 C 229.088 240.569,217.933 229.402,214.986 225.511 C 213.826 223.979,204.506 212.309,201.472 208.589 L 200.099 206.905 200.723 206.849 C 202.282 206.708,216.516 206.021,218.021 206.014 L 219.705 206.006 221.811 208.386 M191.643 208.885 C 193.788 214.745,200.732 232.993,201.978 236.042 C 205.900 245.642,206.020 247.490,202.923 250.586 C 198.109 255.401,187.464 253.086,184.055 246.484 C 183.065 244.566,168.179 208.691,168.316 208.554 C 168.401 208.469,187.590 207.414,190.232 207.349 L 191.074 207.328 191.643 208.885 M88.589 215.439 C 92.628 221.706,97.253 222.804,110.163 220.562 C 133.934 216.434,146.974 216.805,152.271 221.760 C 155.539 224.816,155.553 231.689,152.296 233.844 C 150.612 234.959,149.506 235.117,142.905 235.191 C 136.653 235.261,134.004 235.560,129.432 236.712 C 126.451 237.462,124.361 238.259,121.199 239.852 C 117.744 241.592,116.656 242.034,111.579 243.759 C 106.873 245.359,105.766 245.782,102.176 247.352 C 93.111 251.317,89.477 252.004,77.474 252.026 C 70.593 252.038,69.215 251.909,64.874 250.849 C 43.285 245.573,30.258 234.696,25.982 218.374 C 25.728 217.405,25.558 216.576,25.603 216.530 C 25.649 216.485,39.517 215.845,56.422 215.108 C 73.327 214.372,87.234 213.763,87.326 213.755 C 87.419 213.747,87.987 214.505,88.589 215.439 M392.825 273.077 C 390.538 274.142,389.413 276.657,390.126 279.109 C 391.179 282.730,396.033 283.833,398.611 281.036 C 402.306 277.028,397.763 270.778,392.825 273.077 M396.760 274.001 C 399.409 275.352,399.730 279.081,397.351 280.870 C 393.516 283.756,388.751 278.578,391.920 274.969 C 393.163 273.553,395.116 273.162,396.760 274.001 M393.263 277.642 C 393.263 279.972,393.279 280.084,393.600 280.084 C 393.899 280.084,393.937 279.972,393.937 279.074 C 393.937 277.651,394.415 277.649,395.566 279.064 C 396.192 279.835,396.485 280.067,396.842 280.075 C 397.455 280.087,397.437 280.027,396.529 279.018 C 395.831 278.242,395.783 278.137,396.051 277.982 C 396.885 277.502,397.176 276.779,396.864 275.965 C 396.672 275.467,395.861 275.200,394.535 275.200 L 393.263 275.200 393.263 277.642 M396.067 276.132 C 396.618 276.885,396.009 277.558,394.779 277.558 L 393.937 277.558 393.937 276.611 L 393.937 275.664 394.888 275.742 C 395.554 275.798,395.908 275.915,396.067 276.132 " stroke="none" fill="#0061aa" fill-rule="evenodd"></path><path id="path2" d="M52.451 12.182 C 52.349 12.446,15.933 120.835,15.759 121.389 L 15.640 121.768 37.504 121.768 L 59.368 121.768 61.543 113.474 C 62.739 108.912,63.785 104.933,63.867 104.632 L 64.016 104.084 80.557 104.084 L 97.099 104.084 99.322 112.864 C 100.545 117.693,101.574 121.672,101.609 121.707 C 101.643 121.741,112.278 121.750,125.241 121.727 L 148.811 121.684 133.951 77.642 C 125.777 53.419,117.447 28.731,115.440 22.779 L 111.790 11.958 82.164 11.958 C 57.678 11.958,52.522 11.997,52.451 12.182 M153.937 66.858 L 153.937 121.768 176.757 121.768 L 199.577 121.768 199.620 103.284 L 199.663 84.800 210.779 84.697 C 221.927 84.595,222.881 84.547,227.497 83.869 C 249.864 80.584,261.823 68.052,261.807 47.916 C 261.792 28.910,251.402 16.449,232.674 12.974 C 227.517 12.017,229.716 12.067,190.274 12.005 L 153.937 11.948 153.937 66.858 M286.052 12.179 C 285.950 12.444,249.529 120.846,249.359 121.389 L 249.240 121.768 271.106 121.768 L 292.971 121.768 295.144 113.474 C 296.340 108.912,297.385 104.933,297.467 104.632 L 297.616 104.084 314.157 104.084 L 330.699 104.084 332.922 112.864 C 334.145 117.693,335.174 121.672,335.209 121.707 C 335.243 121.741,345.878 121.750,358.842 121.727 L 382.412 121.684 367.551 77.642 C 359.377 53.419,351.047 28.731,349.040 22.779 L 345.390 11.958 315.764 11.958 C 291.490 11.958,286.121 11.998,286.052 12.179 M85.861 56.675 C 88.351 67.975,90.358 77.278,90.321 77.347 C 90.226 77.526,70.905 77.506,70.905 77.328 C 70.905 77.151,80.808 36.396,80.933 36.056 C 81.152 35.463,81.590 37.294,85.861 56.675 M319.461 56.674 C 321.953 67.975,323.960 77.278,323.923 77.347 C 323.826 77.526,304.505 77.506,304.505 77.328 C 304.505 77.151,314.408 36.396,314.533 36.056 C 314.752 35.465,315.185 37.280,319.461 56.674 M208.287 37.056 C 214.804 37.874,217.753 40.788,218.198 46.852 C 218.830 55.452,213.775 59.660,202.609 59.829 L 199.663 59.874 199.620 48.379 L 199.577 36.884 203.245 36.884 C 205.263 36.884,207.532 36.962,208.287 37.056 M15.444 125.870 C 15.518 125.996,16.147 126.981,16.842 128.060 L 18.105 130.021 200.042 130.021 L 381.979 130.021 381.979 127.832 L 381.979 125.642 198.644 125.642 C 44.428 125.642,15.331 125.678,15.444 125.870 " stroke="none" fill="#ee3a43" fill-rule="evenodd"></path><path id="path3" d="M224.887 12.079 C 225.143 12.117,225.521 12.116,225.729 12.076 C 225.936 12.036,225.726 12.005,225.263 12.006 C 224.800 12.007,224.631 12.040,224.887 12.079 M227.242 12.242 C 227.404 12.285,227.669 12.285,227.832 12.242 C 227.994 12.200,227.861 12.165,227.537 12.165 C 227.213 12.165,227.080 12.200,227.242 12.242 M199.661 48.337 L 199.663 59.874 201.474 59.883 L 203.285 59.892 201.517 59.835 L 199.750 59.778 199.705 48.289 L 199.660 36.800 199.661 48.337 M206.612 37.003 C 206.822 37.044,207.125 37.042,207.286 37.000 C 207.447 36.958,207.276 36.925,206.905 36.927 C 206.535 36.929,206.403 36.963,206.612 37.003 M215.495 40.084 C 215.857 40.455,216.190 40.758,216.237 40.758 C 216.283 40.758,216.025 40.455,215.663 40.084 C 215.301 39.714,214.967 39.411,214.921 39.411 C 214.875 39.411,215.133 39.714,215.495 40.084 M261.765 43.958 C 261.765 44.282,261.800 44.415,261.842 44.253 C 261.885 44.091,261.885 43.825,261.842 43.663 C 261.800 43.501,261.765 43.634,261.765 43.958 M261.960 48.000 C 261.960 49.158,261.987 49.632,262.019 49.053 C 262.052 48.474,262.052 47.526,262.019 46.947 C 261.987 46.368,261.960 46.842,261.960 48.000 M218.164 48.000 C 218.164 48.787,218.193 49.109,218.229 48.716 C 218.264 48.322,218.264 47.678,218.229 47.284 C 218.193 46.891,218.164 47.213,218.164 48.000 M205.179 59.737 C 205.341 59.780,205.606 59.780,205.768 59.737 C 205.931 59.695,205.798 59.660,205.474 59.660 C 205.149 59.660,205.017 59.695,205.179 59.737 M80.589 77.305 L 70.821 77.394 80.537 77.434 C 86.877 77.460,90.290 77.415,90.358 77.305 C 90.415 77.213,90.439 77.155,90.410 77.177 C 90.381 77.199,85.962 77.257,80.589 77.305 M314.189 77.305 L 304.421 77.394 314.137 77.434 C 320.477 77.460,323.890 77.415,323.958 77.305 C 324.015 77.213,324.039 77.155,324.010 77.177 C 323.981 77.199,319.562 77.257,314.189 77.305 M222.695 84.495 C 222.857 84.537,223.122 84.537,223.284 84.495 C 223.446 84.453,223.314 84.418,222.989 84.418 C 222.665 84.418,222.533 84.453,222.695 84.495 M220.253 84.666 C 220.461 84.706,220.802 84.706,221.011 84.666 C 221.219 84.626,221.048 84.593,220.632 84.593 C 220.215 84.593,220.044 84.626,220.253 84.666 M199.657 84.926 C 199.612 85.042,199.596 93.398,199.621 103.495 L 199.665 121.853 199.706 103.370 L 199.747 84.887 208.884 84.842 L 218.021 84.797 208.879 84.756 C 201.690 84.724,199.720 84.761,199.657 84.926 M69.895 104.208 C 85.599 104.324,97.179 104.325,97.179 104.211 C 97.179 104.141,89.695 104.102,80.547 104.124 C 71.400 104.146,66.606 104.184,69.895 104.208 M303.495 104.208 C 319.199 104.324,330.779 104.325,330.779 104.211 C 330.779 104.141,323.295 104.102,314.147 104.124 C 305.000 104.146,300.206 104.184,303.495 104.208 M107.003 125.600 C 157.472 125.623,240.007 125.623,290.414 125.600 C 340.821 125.577,299.528 125.558,198.653 125.558 C 97.777 125.558,56.535 125.577,107.003 125.600 M109.024 130.147 C 159.123 130.171,241.051 130.171,291.088 130.147 C 341.124 130.124,300.135 130.105,200.000 130.105 C 99.865 130.105,58.926 130.124,109.024 130.147 " stroke="none" fill="#f7a08e" fill-rule="evenodd"></path><path id="path4" d="M106.751 4.674 C 157.358 4.697,240.121 4.697,290.667 4.674 C 341.213 4.650,299.806 4.631,198.653 4.631 C 97.499 4.631,56.143 4.650,106.751 4.674 M389.214 7.958 C 389.627 8.398,389.987 8.758,390.014 8.758 C 390.140 8.758,390.007 8.607,389.263 7.909 L 388.463 7.158 389.214 7.958 M67.326 11.916 C 75.501 11.940,88.878 11.940,97.053 11.916 C 105.227 11.892,98.539 11.872,82.189 11.872 C 65.840 11.872,59.152 11.892,67.326 11.916 M171.242 11.916 C 180.806 11.940,196.457 11.940,206.021 11.916 C 215.585 11.892,207.760 11.872,188.632 11.872 C 169.503 11.872,161.678 11.892,171.242 11.916 M300.926 11.916 C 309.101 11.940,322.478 11.940,330.653 11.916 C 338.827 11.892,332.139 11.872,315.789 11.872 C 299.440 11.872,292.752 11.892,300.926 11.916 M4.631 136.168 C 4.631 202.956,4.650 230.303,4.674 196.940 C 4.697 163.577,4.697 108.933,4.674 75.509 C 4.650 42.084,4.631 69.381,4.631 136.168 M392.673 136.253 C 392.673 202.716,392.692 229.905,392.716 196.674 C 392.739 163.442,392.739 109.063,392.716 75.832 C 392.692 42.600,392.673 69.789,392.673 136.253 M205.516 37.000 C 205.678 37.043,205.943 37.043,206.105 37.000 C 206.267 36.958,206.135 36.923,205.811 36.923 C 205.486 36.923,205.354 36.958,205.516 37.000 M218.147 84.832 C 218.309 84.874,218.575 84.874,218.737 84.832 C 218.899 84.790,218.766 84.755,218.442 84.755 C 218.118 84.755,217.985 84.790,218.147 84.832 M101.533 121.811 C 101.603 121.881,112.304 121.919,125.314 121.895 L 148.968 121.853 125.187 121.768 C 112.108 121.722,101.463 121.741,101.533 121.811 M335.133 121.811 C 335.203 121.881,345.904 121.919,358.914 121.895 L 382.568 121.853 358.787 121.768 C 345.708 121.722,335.063 121.741,335.133 121.811 M26.471 121.895 C 32.462 121.919,42.314 121.919,48.366 121.895 C 54.417 121.870,49.516 121.850,37.474 121.850 C 25.432 121.850,20.480 121.870,26.471 121.895 M165.361 121.895 C 171.690 121.919,181.997 121.919,188.266 121.895 C 194.534 121.870,189.356 121.850,176.758 121.850 C 164.160 121.850,159.031 121.870,165.361 121.895 M260.071 121.895 C 266.062 121.919,275.914 121.919,281.966 121.895 C 288.017 121.870,283.116 121.850,271.074 121.850 C 259.032 121.850,254.080 121.870,260.071 121.895 M382.045 127.832 C 382.045 129.082,382.071 129.594,382.104 128.968 C 382.136 128.343,382.136 127.320,382.104 126.695 C 382.071 126.069,382.045 126.581,382.045 127.832 M201.557 134.695 L 381.978 134.737 382.021 164.926 L 382.065 195.116 382.064 164.884 L 382.063 134.653 201.600 134.653 L 21.137 134.652 201.557 134.695 M125.011 158.944 C 125.358 158.980,125.926 158.980,126.274 158.944 C 126.621 158.907,126.337 158.878,125.642 158.878 C 124.947 158.878,124.663 158.907,125.011 158.944 M139.621 162.442 C 139.935 162.766,140.230 163.032,140.277 163.032 C 140.323 163.032,140.104 162.766,139.789 162.442 C 139.475 162.118,139.180 161.853,139.134 161.853 C 139.088 161.853,139.307 162.118,139.621 162.442 M342.280 164.504 C 342.816 164.537,343.650 164.537,344.132 164.503 C 344.615 164.469,344.177 164.442,343.158 164.442 C 342.139 164.442,341.744 164.470,342.280 164.504 M47.663 168.505 C 47.977 168.829,48.272 169.095,48.319 169.095 C 48.365 169.095,48.146 168.829,47.832 168.505 C 47.517 168.181,47.222 167.916,47.176 167.916 C 47.130 167.916,47.349 168.181,47.663 168.505 M316.290 175.621 L 315.200 176.758 316.337 175.668 C 317.393 174.656,317.551 174.484,317.427 174.484 C 317.401 174.484,316.889 174.996,316.290 175.621 M60.379 180.716 L 58.526 180.818 60.421 180.851 C 61.594 180.872,62.316 180.820,62.316 180.716 C 62.316 180.623,62.297 180.562,62.274 180.581 C 62.251 180.599,61.398 180.660,60.379 180.716 M51.916 181.009 C 52.448 181.042,53.320 181.042,53.853 181.009 C 54.385 180.975,53.949 180.948,52.884 180.948 C 51.819 180.948,51.383 180.975,51.916 181.009 M44.337 181.177 C 44.869 181.211,45.741 181.211,46.274 181.177 C 46.806 181.144,46.371 181.116,45.305 181.116 C 44.240 181.116,43.804 181.144,44.337 181.177 M36.758 181.346 C 37.291 181.379,38.162 181.379,38.695 181.346 C 39.227 181.312,38.792 181.285,37.726 181.285 C 36.661 181.285,36.225 181.312,36.758 181.346 M29.179 181.514 C 29.712 181.547,30.583 181.547,31.116 181.514 C 31.648 181.481,31.213 181.453,30.147 181.453 C 29.082 181.453,28.646 181.481,29.179 181.514 M21.691 181.683 C 22.273 181.716,23.183 181.715,23.712 181.682 C 24.241 181.649,23.764 181.622,22.653 181.622 C 21.541 181.623,21.108 181.650,21.691 181.683 M14.047 181.960 C 13.998 182.088,13.987 182.524,14.023 182.928 C 14.088 183.660,14.089 183.660,14.118 182.786 L 14.147 181.908 15.621 181.852 L 17.095 181.796 15.616 181.761 C 14.487 181.735,14.116 181.781,14.047 181.960 M297.979 182.019 C 298.512 182.053,299.383 182.053,299.916 182.019 C 300.448 181.986,300.013 181.958,298.947 181.958 C 297.882 181.958,297.446 181.986,297.979 182.019 M290.589 182.310 C 290.537 182.446,290.534 182.655,290.581 182.773 C 290.629 182.892,290.674 182.822,290.681 182.618 C 290.694 182.272,290.788 182.242,292.000 182.188 L 293.305 182.131 291.995 182.097 C 290.976 182.071,290.663 182.118,290.589 182.310 M267.105 182.856 C 267.722 182.919,267.775 182.966,267.840 183.505 C 267.908 184.081,267.909 184.080,267.891 183.454 C 267.874 182.827,267.867 182.821,267.157 182.805 L 266.440 182.788 267.105 182.856 M260.679 183.030 C 261.169 183.064,261.927 183.063,262.364 183.029 C 262.800 182.994,262.400 182.966,261.474 182.967 C 260.547 182.967,260.190 182.995,260.679 183.030 M254.111 183.198 C 254.600 183.232,255.358 183.232,255.795 183.197 C 256.232 183.163,255.832 183.135,254.905 183.135 C 253.979 183.136,253.621 183.164,254.111 183.198 M247.542 183.366 C 248.032 183.401,248.790 183.400,249.227 183.366 C 249.664 183.331,249.263 183.303,248.337 183.304 C 247.411 183.304,247.053 183.332,247.542 183.366 M241.142 183.535 C 241.632 183.569,242.390 183.569,242.827 183.534 C 243.264 183.500,242.863 183.472,241.937 183.472 C 241.011 183.472,240.653 183.501,241.142 183.535 M234.574 183.703 C 235.063 183.737,235.821 183.737,236.258 183.703 C 236.695 183.668,236.295 183.640,235.368 183.640 C 234.442 183.641,234.085 183.669,234.574 183.703 M228.006 183.872 C 228.495 183.906,229.253 183.906,229.690 183.871 C 230.127 183.836,229.726 183.808,228.800 183.809 C 227.874 183.809,227.516 183.838,228.006 183.872 M221.606 184.040 C 222.095 184.074,222.853 184.074,223.290 184.039 C 223.727 184.005,223.326 183.977,222.400 183.977 C 221.474 183.978,221.116 184.006,221.606 184.040 M215.037 184.209 C 215.527 184.243,216.285 184.242,216.721 184.208 C 217.158 184.173,216.758 184.145,215.832 184.146 C 214.905 184.146,214.548 184.174,215.037 184.209 M208.469 184.377 C 208.958 184.411,209.716 184.411,210.153 184.376 C 210.590 184.342,210.189 184.314,209.263 184.314 C 208.337 184.315,207.979 184.343,208.469 184.377 M202.069 184.545 C 202.558 184.580,203.316 184.579,203.753 184.545 C 204.190 184.510,203.789 184.482,202.863 184.483 C 201.937 184.483,201.579 184.511,202.069 184.545 M195.500 184.714 C 195.990 184.748,196.748 184.748,197.185 184.713 C 197.621 184.678,197.221 184.651,196.295 184.651 C 195.368 184.651,195.011 184.680,195.500 184.714 M188.932 184.882 C 189.421 184.916,190.179 184.916,190.616 184.881 C 191.053 184.847,190.653 184.819,189.726 184.819 C 188.800 184.820,188.443 184.848,188.932 184.882 M182.532 185.051 C 183.021 185.085,183.779 185.084,184.216 185.050 C 184.653 185.015,184.253 184.987,183.326 184.988 C 182.400 184.988,182.043 185.017,182.532 185.051 M175.964 185.219 C 176.453 185.253,177.211 185.253,177.648 185.218 C 178.085 185.184,177.684 185.156,176.758 185.156 C 175.832 185.157,175.474 185.185,175.964 185.219 M290.750 186.189 C 290.751 186.838,290.781 187.083,290.818 186.733 C 290.854 186.384,290.853 185.853,290.816 185.554 C 290.779 185.255,290.749 185.541,290.750 186.189 M169.564 185.388 C 170.053 185.422,170.811 185.421,171.248 185.387 C 171.685 185.352,171.284 185.324,170.358 185.325 C 169.432 185.325,169.074 185.353,169.564 185.388 M267.680 188.295 C 267.680 189.082,267.709 189.404,267.744 189.011 C 267.780 188.617,267.780 187.973,267.744 187.579 C 267.709 187.185,267.680 187.507,267.680 188.295 M14.182 189.011 L 14.147 190.653 15.200 190.621 L 16.253 190.589 15.290 190.528 L 14.328 190.468 14.273 188.918 L 14.217 187.368 14.182 189.011 M111.795 188.082 C 112.285 188.116,113.042 188.116,113.479 188.081 C 113.916 188.047,113.516 188.019,112.589 188.019 C 111.663 188.020,111.306 188.048,111.795 188.082 M105.221 188.250 C 105.707 188.285,106.503 188.285,106.989 188.250 C 107.476 188.216,107.078 188.189,106.105 188.189 C 105.133 188.189,104.735 188.216,105.221 188.250 M98.827 188.419 C 99.316 188.453,100.074 188.453,100.511 188.418 C 100.948 188.384,100.547 188.356,99.621 188.356 C 98.695 188.357,98.337 188.385,98.827 188.419 M92.258 188.588 C 92.748 188.622,93.506 188.621,93.942 188.587 C 94.379 188.552,93.979 188.524,93.053 188.525 C 92.126 188.525,91.769 188.553,92.258 188.588 M85.690 188.756 C 86.179 188.790,86.937 188.790,87.374 188.755 C 87.811 188.721,87.411 188.693,86.484 188.693 C 85.558 188.694,85.200 188.722,85.690 188.756 M79.121 188.924 C 79.611 188.958,80.369 188.958,80.806 188.924 C 81.243 188.889,80.842 188.861,79.916 188.862 C 78.989 188.862,78.632 188.890,79.121 188.924 M72.553 189.093 C 73.042 189.127,73.800 189.127,74.237 189.092 C 74.674 189.057,74.274 189.029,73.347 189.030 C 72.421 189.030,72.064 189.059,72.553 189.093 M65.985 189.261 C 66.474 189.295,67.232 189.295,67.669 189.260 C 68.106 189.226,67.705 189.198,66.779 189.198 C 65.853 189.199,65.495 189.227,65.985 189.261 M59.411 189.429 C 59.897 189.463,60.693 189.463,61.179 189.429 C 61.665 189.395,61.267 189.368,60.295 189.368 C 59.322 189.368,58.924 189.395,59.411 189.429 M53.016 189.598 C 53.506 189.632,54.263 189.632,54.700 189.597 C 55.137 189.563,54.737 189.535,53.811 189.535 C 52.884 189.536,52.527 189.564,53.016 189.598 M290.917 190.484 C 290.917 191.086,290.948 191.333,290.985 191.032 C 291.022 190.731,291.022 190.238,290.985 189.937 C 290.948 189.636,290.917 189.882,290.917 190.484 M46.448 189.766 C 46.937 189.801,47.695 189.800,48.132 189.766 C 48.569 189.731,48.168 189.703,47.242 189.704 C 46.316 189.704,45.958 189.732,46.448 189.766 M39.879 189.935 C 40.369 189.969,41.127 189.969,41.564 189.934 C 42.000 189.900,41.600 189.872,40.674 189.872 C 39.747 189.872,39.390 189.901,39.879 189.935 M33.311 190.103 C 33.800 190.137,34.558 190.137,34.995 190.103 C 35.432 190.068,35.032 190.040,34.105 190.040 C 33.179 190.041,32.821 190.069,33.311 190.103 M26.742 190.272 C 27.232 190.306,27.990 190.306,28.427 190.271 C 28.864 190.236,28.463 190.208,27.537 190.209 C 26.611 190.209,26.253 190.238,26.742 190.272 M20.174 190.440 C 20.663 190.474,21.421 190.474,21.858 190.439 C 22.295 190.405,21.895 190.377,20.968 190.377 C 20.042 190.378,19.685 190.406,20.174 190.440 M267.511 193.684 C 267.511 194.472,267.540 194.794,267.576 194.400 C 267.611 194.006,267.611 193.362,267.576 192.968 C 267.540 192.575,267.511 192.897,267.511 193.684 M300.002 193.468 C 300.258 193.507,300.637 193.506,300.844 193.466 C 301.052 193.426,300.842 193.394,300.379 193.396 C 299.916 193.397,299.746 193.430,300.002 193.468 M296.971 193.637 C 297.227 193.675,297.606 193.674,297.813 193.634 C 298.020 193.594,297.811 193.563,297.347 193.564 C 296.884 193.565,296.715 193.598,296.971 193.637 M294.021 193.803 C 294.229 193.843,294.571 193.843,294.779 193.803 C 294.987 193.763,294.817 193.730,294.400 193.730 C 293.983 193.730,293.813 193.763,294.021 193.803 M291.242 193.969 C 291.404 194.011,291.669 194.011,291.832 193.969 C 291.994 193.926,291.861 193.892,291.537 193.892 C 291.213 193.892,291.080 193.926,291.242 193.969 M265.308 195.321 C 265.564 195.360,265.943 195.359,266.150 195.319 C 266.357 195.279,266.147 195.247,265.684 195.248 C 265.221 195.249,265.052 195.282,265.308 195.321 M261.937 195.489 C 262.192 195.528,262.608 195.528,262.863 195.489 C 263.118 195.450,262.909 195.419,262.400 195.419 C 261.891 195.419,261.682 195.450,261.937 195.489 M258.739 195.658 C 258.995 195.696,259.374 195.695,259.581 195.655 C 259.788 195.615,259.579 195.584,259.116 195.585 C 258.653 195.586,258.483 195.619,258.739 195.658 M255.539 195.826 C 255.795 195.865,256.174 195.864,256.381 195.824 C 256.588 195.784,256.379 195.752,255.916 195.753 C 255.453 195.755,255.283 195.787,255.539 195.826 M252.168 195.994 C 252.423 196.033,252.840 196.033,253.095 195.994 C 253.349 195.956,253.141 195.924,252.632 195.924 C 252.122 195.924,251.914 195.956,252.168 195.994 M248.971 196.163 C 249.227 196.202,249.606 196.201,249.813 196.161 C 250.020 196.121,249.811 196.089,249.347 196.090 C 248.884 196.092,248.715 196.124,248.971 196.163 M245.600 196.331 C 245.855 196.370,246.272 196.370,246.526 196.331 C 246.781 196.293,246.573 196.261,246.063 196.261 C 245.554 196.261,245.345 196.293,245.600 196.331 M242.402 196.500 C 242.658 196.539,243.037 196.537,243.244 196.498 C 243.452 196.458,243.242 196.426,242.779 196.427 C 242.316 196.428,242.146 196.461,242.402 196.500 M239.202 196.668 C 239.458 196.707,239.837 196.706,240.044 196.666 C 240.252 196.626,240.042 196.594,239.579 196.596 C 239.116 196.597,238.946 196.630,239.202 196.668 M235.832 196.836 C 236.086 196.875,236.503 196.875,236.758 196.836 C 237.013 196.798,236.804 196.766,236.295 196.766 C 235.785 196.766,235.577 196.798,235.832 196.836 M232.634 197.005 C 232.890 197.044,233.269 197.043,233.476 197.003 C 233.683 196.963,233.474 196.931,233.011 196.932 C 232.547 196.934,232.378 196.966,232.634 197.005 M229.263 197.173 C 229.518 197.212,229.935 197.212,230.189 197.173 C 230.444 197.135,230.236 197.103,229.726 197.103 C 229.217 197.103,229.008 197.135,229.263 197.173 M226.065 197.342 C 226.321 197.381,226.700 197.380,226.908 197.340 C 227.115 197.300,226.905 197.268,226.442 197.269 C 225.979 197.270,225.809 197.303,226.065 197.342 M222.865 197.510 C 223.121 197.549,223.500 197.548,223.708 197.508 C 223.915 197.468,223.705 197.436,223.242 197.438 C 222.779 197.439,222.609 197.472,222.865 197.510 M219.495 197.679 C 219.749 197.717,220.166 197.717,220.421 197.679 C 220.676 197.640,220.467 197.608,219.958 197.608 C 219.448 197.608,219.240 197.640,219.495 197.679 M216.297 197.847 C 216.553 197.886,216.932 197.885,217.139 197.845 C 217.346 197.805,217.137 197.773,216.674 197.774 C 216.211 197.776,216.041 197.808,216.297 197.847 M212.926 198.015 C 213.181 198.054,213.598 198.054,213.853 198.015 C 214.107 197.977,213.899 197.945,213.389 197.945 C 212.880 197.945,212.672 197.977,212.926 198.015 M209.729 198.184 C 209.985 198.223,210.364 198.222,210.571 198.182 C 210.778 198.142,210.568 198.110,210.105 198.111 C 209.642 198.113,209.473 198.145,209.729 198.184 M206.529 198.352 C 206.785 198.391,207.164 198.390,207.371 198.350 C 207.578 198.310,207.368 198.278,206.905 198.280 C 206.442 198.281,206.273 198.314,206.529 198.352 M203.158 198.521 C 203.413 198.559,203.829 198.559,204.084 198.521 C 204.339 198.482,204.131 198.450,203.621 198.450 C 203.112 198.450,202.903 198.482,203.158 198.521 M382.523 198.905 C 382.523 199.229,382.558 199.362,382.600 199.200 C 382.643 199.038,382.643 198.773,382.600 198.611 C 382.558 198.448,382.523 198.581,382.523 198.905 M199.960 198.689 C 200.216 198.728,200.595 198.727,200.802 198.687 C 201.009 198.647,200.800 198.615,200.337 198.617 C 199.874 198.618,199.704 198.651,199.960 198.689 M196.589 198.857 C 196.844 198.896,197.261 198.896,197.516 198.857 C 197.771 198.819,197.562 198.787,197.053 198.787 C 196.543 198.787,196.335 198.819,196.589 198.857 M193.389 199.026 C 193.644 199.064,194.061 199.064,194.316 199.026 C 194.571 198.987,194.362 198.956,193.853 198.956 C 193.343 198.956,193.135 198.987,193.389 199.026 M190.192 199.195 C 190.448 199.233,190.827 199.232,191.034 199.192 C 191.241 199.152,191.032 199.121,190.568 199.122 C 190.105 199.123,189.936 199.156,190.192 199.195 M381.011 199.663 C 381.013 200.034,381.047 200.165,381.088 199.956 C 381.128 199.746,381.126 199.443,381.084 199.282 C 381.042 199.121,381.009 199.293,381.011 199.663 M186.821 199.363 C 187.076 199.401,187.493 199.401,187.747 199.363 C 188.002 199.324,187.794 199.293,187.284 199.293 C 186.775 199.293,186.566 199.324,186.821 199.363 M183.623 199.531 C 183.879 199.570,184.258 199.569,184.465 199.529 C 184.673 199.489,184.463 199.457,184.000 199.459 C 183.537 199.460,183.367 199.493,183.623 199.531 M180.253 199.700 C 180.507 199.738,180.924 199.738,181.179 199.700 C 181.434 199.661,181.225 199.629,180.716 199.629 C 180.206 199.629,179.998 199.661,180.253 199.700 M177.053 199.868 C 177.307 199.907,177.724 199.907,177.979 199.868 C 178.234 199.829,178.025 199.798,177.516 199.798 C 177.006 199.798,176.798 199.829,177.053 199.868 M173.855 200.037 C 174.111 200.075,174.490 200.074,174.697 200.034 C 174.904 199.994,174.695 199.963,174.232 199.964 C 173.768 199.965,173.599 199.998,173.855 200.037 M170.484 200.205 C 170.739 200.243,171.156 200.243,171.411 200.205 C 171.665 200.166,171.457 200.135,170.947 200.135 C 170.438 200.135,170.229 200.166,170.484 200.205 M305.245 202.442 C 305.245 203.693,305.271 204.204,305.304 203.579 C 305.336 202.954,305.336 201.931,305.304 201.305 C 305.271 200.680,305.245 201.192,305.245 202.442 M382.713 202.442 C 382.713 203.322,382.742 203.682,382.776 203.242 C 382.811 202.802,382.811 202.082,382.776 201.642 C 382.742 201.202,382.713 201.562,382.713 202.442 M109.603 204.080 C 109.906 204.117,110.360 204.117,110.614 204.078 C 110.867 204.040,110.619 204.009,110.063 204.010 C 109.507 204.011,109.300 204.042,109.603 204.080 M105.898 204.248 C 106.200 204.286,106.655 204.285,106.908 204.247 C 107.161 204.208,106.914 204.178,106.358 204.179 C 105.802 204.179,105.595 204.211,105.898 204.248 M102.192 204.417 C 102.495 204.454,102.950 204.454,103.203 204.415 C 103.456 204.377,103.208 204.346,102.653 204.347 C 102.097 204.348,101.890 204.379,102.192 204.417 M98.487 204.585 C 98.790 204.623,99.245 204.622,99.498 204.583 C 99.751 204.545,99.503 204.514,98.947 204.515 C 98.392 204.516,98.185 204.548,98.487 204.585 M94.695 204.752 C 94.949 204.791,95.366 204.791,95.621 204.752 C 95.876 204.714,95.667 204.682,95.158 204.682 C 94.648 204.682,94.440 204.714,94.695 204.752 M381.011 205.221 C 381.013 205.592,381.047 205.723,381.088 205.514 C 381.128 205.304,381.126 205.001,381.084 204.840 C 381.042 204.679,381.009 204.851,381.011 205.221 M90.989 204.921 C 91.244 204.959,91.661 204.959,91.916 204.921 C 92.171 204.882,91.962 204.850,91.453 204.850 C 90.943 204.850,90.735 204.882,90.989 204.921 M87.203 205.090 C 87.506 205.128,87.960 205.127,88.214 205.089 C 88.467 205.050,88.219 205.020,87.663 205.021 C 87.107 205.022,86.900 205.053,87.203 205.090 M83.498 205.259 C 83.800 205.296,84.255 205.296,84.508 205.257 C 84.761 205.219,84.514 205.188,83.958 205.189 C 83.402 205.190,83.195 205.221,83.498 205.259 M79.792 205.427 C 80.095 205.465,80.550 205.464,80.803 205.426 C 81.056 205.387,80.808 205.357,80.253 205.357 C 79.697 205.358,79.490 205.390,79.792 205.427 M76.087 205.596 C 76.390 205.633,76.845 205.632,77.098 205.594 C 77.351 205.556,77.103 205.525,76.547 205.526 C 75.992 205.527,75.785 205.558,76.087 205.596 M72.382 205.764 C 72.685 205.802,73.139 205.801,73.392 205.762 C 73.646 205.724,73.398 205.693,72.842 205.694 C 72.286 205.695,72.079 205.727,72.382 205.764 M68.677 205.933 C 68.979 205.970,69.434 205.969,69.687 205.931 C 69.940 205.892,69.693 205.862,69.137 205.863 C 68.581 205.864,68.374 205.895,68.677 205.933 M64.971 206.101 C 65.274 206.138,65.729 206.138,65.982 206.099 C 66.235 206.061,65.987 206.030,65.432 206.031 C 64.876 206.032,64.669 206.064,64.971 206.101 M216.632 206.100 C 216.886 206.138,217.303 206.138,217.558 206.100 C 217.813 206.061,217.604 206.029,217.095 206.029 C 216.585 206.029,216.377 206.061,216.632 206.100 M61.266 206.269 C 61.569 206.307,62.024 206.306,62.277 206.268 C 62.530 206.229,62.282 206.199,61.726 206.200 C 61.171 206.201,60.963 206.232,61.266 206.269 M213.095 206.268 C 213.349 206.307,213.766 206.307,214.021 206.268 C 214.276 206.229,214.067 206.198,213.558 206.198 C 213.048 206.198,212.840 206.229,213.095 206.268 M57.561 206.438 C 57.864 206.475,58.318 206.475,58.571 206.436 C 58.825 206.398,58.577 206.367,58.021 206.368 C 57.465 206.369,57.258 206.400,57.561 206.438 M209.726 206.436 C 209.981 206.475,210.398 206.475,210.653 206.436 C 210.907 206.398,210.699 206.366,210.189 206.366 C 209.680 206.366,209.472 206.398,209.726 206.436 M53.856 206.606 C 54.158 206.644,54.613 206.643,54.866 206.605 C 55.119 206.566,54.872 206.535,54.316 206.536 C 53.760 206.537,53.553 206.569,53.856 206.606 M206.358 206.605 C 206.613 206.643,207.029 206.643,207.284 206.605 C 207.539 206.566,207.331 206.535,206.821 206.535 C 206.312 206.535,206.103 206.566,206.358 206.605 M50.063 206.773 C 50.318 206.812,50.735 206.812,50.989 206.773 C 51.244 206.735,51.036 206.703,50.526 206.703 C 50.017 206.703,49.808 206.735,50.063 206.773 M202.821 206.773 C 203.076 206.812,203.493 206.812,203.747 206.773 C 204.002 206.735,203.794 206.703,203.284 206.703 C 202.775 206.703,202.566 206.735,202.821 206.773 M46.358 206.942 C 46.613 206.980,47.029 206.980,47.284 206.942 C 47.539 206.903,47.331 206.872,46.821 206.872 C 46.312 206.872,46.103 206.903,46.358 206.942 M42.571 207.112 C 42.874 207.149,43.329 207.148,43.582 207.110 C 43.835 207.071,43.587 207.041,43.032 207.042 C 42.476 207.043,42.269 207.074,42.571 207.112 M38.866 207.280 C 39.169 207.317,39.624 207.317,39.877 207.278 C 40.130 207.240,39.882 207.209,39.326 207.210 C 38.771 207.211,38.563 207.242,38.866 207.280 M35.161 207.448 C 35.464 207.486,35.918 207.485,36.171 207.447 C 36.425 207.408,36.177 207.378,35.621 207.379 C 35.065 207.379,34.858 207.411,35.161 207.448 M189.474 207.421 C 190.064 207.552,191.123 207.575,191.050 207.456 C 191.006 207.385,190.576 207.335,190.095 207.346 C 189.614 207.357,189.335 207.390,189.474 207.421 M31.456 207.617 C 31.758 207.654,32.213 207.654,32.466 207.615 C 32.719 207.577,32.472 207.546,31.916 207.547 C 31.360 207.548,31.153 207.579,31.456 207.617 M186.316 207.615 C 186.571 207.654,186.987 207.654,187.242 207.615 C 187.497 207.577,187.288 207.545,186.779 207.545 C 186.269 207.545,186.061 207.577,186.316 207.615 M27.750 207.785 C 28.053 207.823,28.508 207.822,28.761 207.783 C 29.014 207.745,28.766 207.714,28.211 207.715 C 27.655 207.716,27.448 207.748,27.750 207.785 M182.947 207.784 C 183.202 207.822,183.619 207.822,183.874 207.784 C 184.128 207.745,183.920 207.714,183.411 207.714 C 182.901 207.714,182.693 207.745,182.947 207.784 M24.045 207.954 C 24.348 207.991,24.803 207.990,25.056 207.952 C 25.309 207.913,25.061 207.883,24.505 207.884 C 23.949 207.885,23.742 207.916,24.045 207.954 M179.579 207.952 C 179.834 207.991,180.251 207.991,180.505 207.952 C 180.760 207.914,180.552 207.882,180.042 207.882 C 179.533 207.882,179.324 207.914,179.579 207.952 M20.340 208.122 C 20.643 208.160,21.097 208.159,21.350 208.120 C 21.603 208.082,21.356 208.051,20.800 208.052 C 20.244 208.053,20.037 208.085,20.340 208.122 M176.211 208.121 C 176.465 208.159,176.882 208.159,177.137 208.121 C 177.392 208.082,177.183 208.050,176.674 208.050 C 176.164 208.050,175.956 208.082,176.211 208.121 M16.635 208.290 C 16.937 208.328,17.392 208.327,17.645 208.289 C 17.898 208.250,17.651 208.220,17.095 208.221 C 16.539 208.222,16.332 208.253,16.635 208.290 M172.842 208.289 C 173.097 208.328,173.514 208.328,173.768 208.289 C 174.023 208.250,173.815 208.219,173.305 208.219 C 172.796 208.219,172.587 208.250,172.842 208.289 M13.770 208.456 C 13.980 208.496,14.283 208.495,14.444 208.453 C 14.605 208.410,14.434 208.377,14.063 208.379 C 13.693 208.381,13.561 208.416,13.770 208.456 M169.474 208.457 C 169.728 208.496,170.145 208.496,170.400 208.457 C 170.655 208.419,170.446 208.387,169.937 208.387 C 169.427 208.387,169.219 208.419,169.474 208.457 M231.747 208.726 C 231.747 208.755,231.994 209.002,232.295 209.274 L 232.842 209.768 232.347 209.221 C 231.886 208.711,231.747 208.596,231.747 208.726 M161.892 209.853 C 161.892 210.177,161.926 210.309,161.969 210.147 C 162.011 209.985,162.011 209.720,161.969 209.558 C 161.926 209.396,161.892 209.528,161.892 209.853 M382.059 222.063 C 382.059 228.918,382.080 231.698,382.105 228.240 C 382.131 224.783,382.131 219.174,382.105 215.777 C 382.080 212.380,382.059 215.208,382.059 222.063 M234.358 211.537 C 234.720 211.907,235.054 212.211,235.100 212.211 C 235.146 212.211,234.888 211.907,234.526 211.537 C 234.165 211.166,233.831 210.863,233.784 210.863 C 233.738 210.863,233.996 211.166,234.358 211.537 M151.032 213.677 C 151.240 213.717,151.581 213.717,151.789 213.677 C 151.998 213.637,151.827 213.604,151.411 213.604 C 150.994 213.604,150.823 213.637,151.032 213.677 M237.558 214.905 C 238.201 215.554,238.766 216.084,238.812 216.084 C 238.858 216.084,238.370 215.554,237.726 214.905 C 237.083 214.257,236.519 213.726,236.472 213.726 C 236.426 213.726,236.914 214.257,237.558 214.905 M83.663 214.017 C 83.964 214.054,84.457 214.054,84.758 214.017 C 85.059 213.979,84.813 213.949,84.211 213.949 C 83.608 213.949,83.362 213.979,83.663 214.017 M79.792 214.185 C 80.095 214.223,80.550 214.222,80.803 214.183 C 81.056 214.145,80.808 214.114,80.253 214.115 C 79.697 214.116,79.490 214.148,79.792 214.185 M75.919 214.354 C 76.222 214.391,76.676 214.390,76.929 214.352 C 77.182 214.313,76.935 214.283,76.379 214.284 C 75.823 214.285,75.616 214.316,75.919 214.354 M71.874 214.522 C 72.175 214.559,72.667 214.559,72.968 214.522 C 73.269 214.484,73.023 214.454,72.421 214.454 C 71.819 214.454,71.573 214.484,71.874 214.522 M68.003 214.690 C 68.306 214.728,68.760 214.727,69.014 214.689 C 69.267 214.650,69.019 214.620,68.463 214.621 C 67.907 214.622,67.700 214.653,68.003 214.690 M64.129 214.859 C 64.432 214.896,64.887 214.896,65.140 214.857 C 65.393 214.819,65.145 214.788,64.589 214.789 C 64.034 214.790,63.827 214.821,64.129 214.859 M60.084 215.027 C 60.385 215.064,60.878 215.064,61.179 215.027 C 61.480 214.990,61.234 214.959,60.632 214.959 C 60.029 214.959,59.783 214.990,60.084 215.027 M56.211 215.196 C 56.512 215.233,57.004 215.233,57.305 215.196 C 57.606 215.158,57.360 215.128,56.758 215.128 C 56.156 215.128,55.909 215.158,56.211 215.196 M52.340 215.364 C 52.643 215.402,53.097 215.401,53.350 215.362 C 53.603 215.324,53.356 215.293,52.800 215.294 C 52.244 215.295,52.037 215.327,52.340 215.364 M48.466 215.533 C 48.769 215.570,49.224 215.569,49.477 215.531 C 49.730 215.492,49.482 215.462,48.926 215.463 C 48.371 215.464,48.163 215.495,48.466 215.533 M44.421 215.701 C 44.722 215.738,45.215 215.738,45.516 215.701 C 45.817 215.663,45.571 215.633,44.968 215.633 C 44.366 215.633,44.120 215.663,44.421 215.701 M40.550 215.869 C 40.853 215.907,41.308 215.906,41.561 215.868 C 41.814 215.829,41.566 215.799,41.011 215.800 C 40.455 215.801,40.248 215.832,40.550 215.869 M36.677 216.038 C 36.979 216.075,37.434 216.075,37.687 216.036 C 37.940 215.998,37.693 215.967,37.137 215.968 C 36.581 215.969,36.374 216.000,36.677 216.038 M32.632 216.206 C 32.933 216.243,33.425 216.243,33.726 216.206 C 34.027 216.169,33.781 216.138,33.179 216.138 C 32.577 216.138,32.331 216.169,32.632 216.206 M28.758 216.374 C 29.059 216.412,29.552 216.412,29.853 216.374 C 30.154 216.337,29.907 216.307,29.305 216.307 C 28.703 216.307,28.457 216.337,28.758 216.374 M90.526 218.105 C 90.983 218.568,91.394 218.947,91.440 218.947 C 91.486 218.947,91.151 218.568,90.695 218.105 C 90.239 217.642,89.827 217.263,89.781 217.263 C 89.735 217.263,90.070 217.642,90.526 218.105 M131.835 217.890 C 132.137 217.928,132.592 217.927,132.845 217.889 C 133.098 217.850,132.851 217.820,132.295 217.821 C 131.739 217.822,131.532 217.853,131.835 217.890 M141.263 217.887 C 141.472 217.927,141.813 217.927,142.021 217.887 C 142.229 217.847,142.059 217.814,141.642 217.814 C 141.225 217.814,141.055 217.847,141.263 217.887 M129.053 218.053 C 129.215 218.095,129.480 218.095,129.642 218.053 C 129.804 218.011,129.672 217.976,129.347 217.976 C 129.023 217.976,128.891 218.011,129.053 218.053 M242.274 219.621 C 242.730 220.084,243.141 220.463,243.187 220.463 C 243.234 220.463,242.898 220.084,242.442 219.621 C 241.986 219.158,241.575 218.779,241.528 218.779 C 241.482 218.779,241.817 219.158,242.274 219.621 M99.249 221.767 C 99.878 221.800,100.863 221.799,101.439 221.767 C 102.014 221.734,101.499 221.707,100.295 221.708 C 99.091 221.708,98.620 221.735,99.249 221.767 M238.737 227.368 C 239.099 227.739,239.433 228.042,239.479 228.042 C 239.525 228.042,239.267 227.739,238.905 227.368 C 238.543 226.998,238.210 226.695,238.163 226.695 C 238.117 226.695,238.375 226.998,238.737 227.368 M216.758 227.758 C 216.758 227.787,217.004 228.033,217.305 228.305 L 217.853 228.800 217.358 228.253 C 216.897 227.742,216.758 227.628,216.758 227.758 M369.933 229.263 L 368.421 230.821 369.979 229.309 C 370.836 228.477,371.537 227.776,371.537 227.751 C 371.537 227.629,371.338 227.816,369.933 229.263 M220.042 231.242 C 220.686 231.891,221.250 232.421,221.296 232.421 C 221.343 232.421,220.854 231.891,220.211 231.242 C 219.567 230.594,219.003 230.063,218.956 230.063 C 218.910 230.063,219.399 230.594,220.042 231.242 M152.832 233.305 L 152.337 233.853 152.884 233.358 C 153.185 233.086,153.432 232.840,153.432 232.811 C 153.432 232.680,153.293 232.795,152.832 233.305 M367.697 234.567 C 368.503 234.598,369.867 234.598,370.728 234.568 C 371.590 234.537,370.931 234.512,369.263 234.512 C 367.596 234.512,366.891 234.537,367.697 234.567 M138.568 235.235 C 138.777 235.275,139.118 235.275,139.326 235.235 C 139.535 235.195,139.364 235.162,138.947 235.162 C 138.531 235.162,138.360 235.195,138.568 235.235 M145.895 235.232 C 146.057 235.274,146.322 235.274,146.484 235.232 C 146.646 235.190,146.514 235.155,146.189 235.155 C 145.865 235.155,145.733 235.190,145.895 235.232 M319.453 235.238 C 319.754 235.275,320.246 235.275,320.547 235.238 C 320.848 235.200,320.602 235.170,320.000 235.170 C 319.398 235.170,319.152 235.200,319.453 235.238 M309.516 235.410 C 310.280 235.441,311.531 235.441,312.295 235.410 C 313.059 235.378,312.434 235.353,310.905 235.353 C 309.377 235.353,308.752 235.378,309.516 235.410 M36.035 236.168 C 36.733 236.912,36.884 237.046,36.884 236.919 C 36.884 236.892,36.524 236.532,36.084 236.119 L 35.284 235.368 36.035 236.168 M298.661 235.578 C 299.476 235.609,300.764 235.609,301.524 235.578 C 302.284 235.547,301.617 235.521,300.042 235.522 C 298.467 235.522,297.846 235.547,298.661 235.578 M287.200 235.746 C 288.011 235.777,289.337 235.777,290.147 235.746 C 290.958 235.716,290.295 235.690,288.674 235.690 C 287.053 235.690,286.389 235.716,287.200 235.746 M273.811 235.915 C 274.853 235.945,276.558 235.945,277.600 235.915 C 278.642 235.886,277.789 235.861,275.705 235.861 C 273.621 235.861,272.768 235.886,273.811 235.915 M339.916 240.285 C 340.078 240.327,340.343 240.327,340.505 240.285 C 340.667 240.242,340.535 240.207,340.211 240.207 C 339.886 240.207,339.754 240.242,339.916 240.285 M345.979 240.285 C 346.141 240.327,346.406 240.327,346.568 240.285 C 346.731 240.242,346.598 240.207,346.274 240.207 C 345.949 240.207,345.817 240.242,345.979 240.285 M258.263 241.221 L 257.768 241.768 258.316 241.274 C 258.826 240.813,258.941 240.674,258.810 240.674 C 258.781 240.674,258.535 240.920,258.263 241.221 M142.442 241.301 C 142.743 241.338,143.236 241.338,143.537 241.301 C 143.838 241.263,143.592 241.233,142.989 241.233 C 142.387 241.233,142.141 241.263,142.442 241.301 M139.326 241.463 C 139.488 241.506,139.754 241.506,139.916 241.463 C 140.078 241.421,139.945 241.386,139.621 241.386 C 139.297 241.386,139.164 241.421,139.326 241.463 M146.318 241.466 C 146.527 241.507,146.830 241.505,146.991 241.463 C 147.152 241.421,146.981 241.388,146.611 241.390 C 146.240 241.392,146.108 241.426,146.318 241.466 M342.196 241.978 C 342.779 242.010,343.688 242.010,344.217 241.977 C 344.746 241.944,344.269 241.917,343.158 241.917 C 342.046 241.917,341.613 241.945,342.196 241.978 M234.905 242.481 C 235.299 242.517,235.943 242.517,236.337 242.481 C 236.731 242.446,236.408 242.417,235.621 242.417 C 234.834 242.417,234.512 242.446,234.905 242.481 M30.477 246.947 C 30.890 247.387,31.250 247.747,31.277 247.747 C 31.404 247.747,31.270 247.596,30.526 246.898 L 29.726 246.147 30.477 246.947 M235.668 251.577 C 236.111 251.611,236.793 251.611,237.184 251.576 C 237.575 251.540,237.213 251.512,236.379 251.512 C 235.545 251.513,235.225 251.542,235.668 251.577 M86.442 251.737 C 86.604 251.780,86.869 251.780,87.032 251.737 C 87.194 251.695,87.061 251.660,86.737 251.660 C 86.413 251.660,86.280 251.695,86.442 251.737 M83.666 251.912 C 83.969 251.949,84.424 251.948,84.677 251.910 C 84.930 251.871,84.682 251.841,84.126 251.842 C 83.571 251.843,83.363 251.874,83.666 251.912 M72.971 252.079 C 73.227 252.117,73.606 252.116,73.813 252.076 C 74.020 252.036,73.811 252.005,73.347 252.006 C 72.884 252.007,72.715 252.040,72.971 252.079 M79.368 252.081 C 79.716 252.117,80.284 252.117,80.632 252.081 C 80.979 252.044,80.695 252.015,80.000 252.015 C 79.305 252.015,79.021 252.044,79.368 252.081 M173.811 252.011 C 173.811 252.040,174.057 252.286,174.358 252.558 L 174.905 253.053 174.411 252.505 C 173.949 251.995,173.811 251.880,173.811 252.011 M195.663 253.256 C 195.872 253.296,196.213 253.296,196.421 253.256 C 196.629 253.216,196.459 253.183,196.042 253.183 C 195.625 253.183,195.455 253.216,195.663 253.256 M74.147 263.021 C 74.309 263.064,74.575 263.064,74.737 263.021 C 74.899 262.979,74.766 262.944,74.442 262.944 C 74.118 262.944,73.985 262.979,74.147 263.021 M82.737 263.021 C 82.899 263.064,83.164 263.064,83.326 263.021 C 83.488 262.979,83.356 262.944,83.032 262.944 C 82.707 262.944,82.575 262.979,82.737 263.021 M77.600 263.199 C 78.272 263.231,79.371 263.231,80.042 263.199 C 80.714 263.167,80.164 263.141,78.821 263.141 C 77.478 263.141,76.928 263.167,77.600 263.199 M7.909 264.463 C 8.322 264.903,8.682 265.263,8.709 265.263 C 8.835 265.263,8.702 265.112,7.958 264.414 L 7.158 263.663 7.909 264.463 M106.976 267.916 C 157.336 267.939,239.795 267.939,290.218 267.916 C 340.640 267.892,299.436 267.873,198.653 267.873 C 97.869 267.873,56.615 267.892,106.976 267.916 " stroke="none" fill="#b7c7e4" fill-rule="evenodd"></path></g></svg>