<?xml version="1.0" encoding="utf-8"?>
<svg id="Layer_1" x="0px" y="0px" viewBox="0 0 150 50" xmlns="http://www.w3.org/2000/svg">
  <g>
    <path fill="#00A3FF" d="M 21.838 35.84 L 24.522 35.84 L 24.522 46.43 L 21.838 46.43 L 21.838 35.84 Z"/>
    <path fill="#00A3FF" d="M 35.349 40.136 C 35.349 39.442 35.811 38.878 36.737 38.487 C 37.662 38.096 39.05 37.923 40.901 37.923 C 42.751 37.923 44.139 38.096 45.065 38.487 C 45.99 38.878 46.453 39.442 46.453 40.136 L 46.453 46.43 L 43.862 46.43 L 43.862 45.562 C 43.677 45.822 43.214 46.082 42.566 46.256 C 41.919 46.43 40.993 46.516 39.975 46.516 C 38.31 46.516 37.107 46.343 36.274 45.996 C 35.441 45.648 35.071 45.171 35.071 44.52 L 35.071 44.086 C 35.071 43.131 36.366 42.437 39.05 42.046 L 43.862 41.395 L 43.862 40.136 C 43.862 39.746 43.677 39.442 43.122 39.225 C 42.659 39.051 41.919 38.921 40.808 38.921 C 39.79 38.921 38.957 39.008 38.495 39.225 C 38.032 39.442 37.847 39.702 37.847 40.136 L 37.847 40.614 L 35.163 40.614 L 35.163 40.136 Z M 37.754 44.433 C 37.754 45.171 38.68 45.562 40.531 45.562 C 41.734 45.562 42.566 45.431 43.122 45.214 C 43.677 44.954 43.954 44.65 43.954 44.303 L 43.954 42.437 L 40.16 42.914 C 39.235 43.044 38.587 43.174 38.31 43.348 C 37.94 43.522 37.754 43.782 37.754 44.086 L 37.754 44.433 Z"/>
    <path fill="#00A3FF" d="M 56.262 38.053 L 58.945 38.053 L 60.981 41.569 C 61.258 42.133 61.536 42.654 61.814 43.174 C 62.091 43.695 62.276 44.042 62.276 44.259 L 62.369 44.607 C 62.647 43.869 63.109 42.871 63.849 41.569 L 65.7 38.053 L 68.291 38.053 L 63.479 46.56 C 62.647 47.949 60.796 48.643 57.927 48.643 L 56.724 48.643 L 56.724 47.645 L 57.835 47.645 C 58.76 47.645 59.5 47.515 60.056 47.211 C 60.611 46.907 60.888 46.56 60.888 46.169 C 60.888 45.996 60.796 45.822 60.703 45.562 L 56.262 38.053 Z"/>
    <path d="M 77.915 46.43 L 77.915 36.36 L 88.834 36.36 L 88.834 37.966 L 82.264 37.966 L 82.264 40.831 L 88.186 40.831 L 88.186 42.437 L 82.264 42.437 L 82.264 46.386 L 77.915 46.386 Z" style="fill: rgb(255, 255, 255);"/>
    <path d="M 106.416 39.659 C 106.046 39.616 105.583 39.572 105.028 39.572 C 104.287 39.572 103.64 39.659 103.177 39.876 C 102.714 40.093 102.529 40.397 102.529 40.744 L 102.529 46.386 L 98.273 46.386 L 98.273 37.836 L 102.252 37.836 L 102.252 39.008 C 102.344 38.704 102.714 38.4 103.27 38.183 C 103.825 37.923 104.658 37.793 105.675 37.793 C 105.861 37.793 106.138 37.793 106.416 37.836 L 106.416 39.659 Z" style="fill: rgb(255, 255, 255);"/>
    <path d="M 119.093 44.129 C 119.093 44.39 119.278 44.607 119.648 44.737 C 120.018 44.867 120.574 44.954 121.221 44.954 C 121.869 44.954 122.424 44.867 122.795 44.737 C 123.165 44.607 123.35 44.39 123.35 44.129 L 123.35 43.478 L 127.514 43.478 L 127.514 44.086 C 127.514 44.867 126.959 45.475 125.848 45.909 C 124.738 46.343 123.165 46.56 121.221 46.56 C 119.278 46.56 117.798 46.343 116.687 45.909 C 115.577 45.475 115.022 44.867 115.022 44.086 L 115.022 40.18 C 115.022 39.399 115.577 38.791 116.687 38.357 C 117.798 37.923 119.278 37.706 121.221 37.706 C 123.165 37.706 124.738 37.923 125.848 38.357 C 126.959 38.791 127.514 39.399 127.514 40.18 L 127.514 42.654 L 119.186 42.654 L 119.186 44.129 Z M 123.35 40.136 C 123.35 39.616 122.609 39.312 121.221 39.312 C 119.833 39.312 119.093 39.572 119.093 40.136 L 119.093 41.221 L 123.35 41.221 L 123.35 40.136 Z" style="fill: rgb(255, 255, 255);"/>
    <path d="M 141.579 44.129 C 141.579 44.39 141.764 44.607 142.134 44.737 C 142.505 44.867 143.06 44.954 143.707 44.954 C 144.355 44.954 144.91 44.867 145.281 44.737 C 145.651 44.607 145.836 44.39 145.836 44.129 L 145.836 43.478 L 150 43.478 L 150 44.086 C 150 44.867 149.445 45.475 148.334 45.909 C 147.224 46.343 145.651 46.56 143.707 46.56 C 141.764 46.56 140.284 46.343 139.173 45.909 C 138.063 45.475 137.508 44.867 137.508 44.086 L 137.508 40.18 C 137.508 39.399 138.063 38.791 139.173 38.357 C 140.284 37.923 141.764 37.706 143.707 37.706 C 145.651 37.706 147.224 37.923 148.334 38.357 C 149.445 38.791 150 39.399 150 40.18 L 150 42.654 L 141.672 42.654 L 141.672 44.129 Z M 145.743 40.136 C 145.743 39.616 145.003 39.312 143.615 39.312 C 142.227 39.312 141.487 39.572 141.487 40.136 L 141.487 41.221 L 145.743 41.221 L 145.743 40.136 Z" style="fill: rgb(255, 255, 255);"/>
    <path fill="#00A3FF" d="M 9.901 37.185 C 8.883 36.751 7.403 36.534 5.46 36.534 L 0 36.534 L 0 46.43 L 2.684 46.43 L 2.684 42.957 L 5.922 42.957 C 5.922 42.957 5.922 42.957 6.015 42.957 C 6.015 42.957 6.015 42.957 6.015 42.957 L 6.107 42.957 L 6.107 42.957 C 7.773 42.957 9.068 42.74 9.994 42.35 C 10.919 41.916 11.382 41.352 11.382 40.657 L 11.382 38.878 C 11.382 38.183 10.919 37.619 9.901 37.185 Z M 8.698 40.657 C 8.698 41.482 7.68 41.916 5.645 41.916 L 4.349 41.916 L 2.591 41.916 L 2.591 37.576 L 5.367 37.576 C 7.495 37.576 8.606 38.01 8.606 38.878 L 8.606 40.657 Z"/>
  </g>
  <polygon fill="#00A3FF" points="54.662 0 54.662 0.132 54.662 27.214 59.984 24.991 59.984 19.233 67.193 21.806 67.193 17.097 59.984 14.261 59.984 7.72 83.205 17.663 54.662 30.135 54.662 35.544 95.338 17.837"/>
</svg>